<svg xmlns="http://www.w3.org/2000/svg" viewBox="0 0 269.37 298.49"><defs><style>.cls-1{isolation:isolate;}.cls-2{fill:#db2a4c;}.cls-3{fill:#c52644;}.cls-4{fill:#fff;fill-rule:evenodd;}</style></defs><title>21</title><g id="Elipsa_8_kopia" data-name="Elipsa 8 kopia" class="cls-1"><path class="cls-2" d="M263.84,223.85c8,4.59-128.71,83.43-128.71,74.25,0,9.19-136.68-69.66-128.71-74.25-8,4.59-8-153.09,0-148.5-8-4.59,128.71-83.43,128.71-74.25,0-9.19,136.67,69.66,128.71,74.25C271.8,70.75,271.8,228.44,263.84,223.85Z" transform="translate(-0.44 -0.35)"/><path class="cls-3" d="M263.84,223.85c2.05,1.18,3.58-8.45,4.57-23.3h-1.05v-1.21h-1.21v-1.21h-1.21v-1.21h-1.21v-1.21H262.5v-1.21h-1.21v-1.21h-1.21v-1.21h-1.21v-1.21h-1.21v-1.21h-1.21v-1.21h-1.21V187.2H254V186H252.8v-1.21h-1.21v-1.21h-1.21v-1.21h-1.21v-1.21h-1.21v-1.21h-1.21v-1.21h-1.21V177.5h-1.21v-1.21h-1.21v-1.21h-1.21v-1.21h-1.21v-1.21h-1.21v-1.21h-1.21v-1.21H237V169h-1.21v-1.21H234.6v-1.21h-1.21v-1.21h-1.21v-1.21H231v-1.21h-1.21v-1.21h-1.21v-1.21h-1.21V159.3h-1.21v-1.21h-1.21v-1.21h-1.21v-1.21h-1.21v-1.21h-1.21v-1.21H220V152h-1.21V150.8h-1.21v-1.21H216.4v-1.21h-1.21v-1.21H214V146h-1.21v-1.21h-1.21v-1.21h-1.21v-1.21h-1.21V141.1h-1.21v-1.21H206.7v-1.21h-1.21v-1.21h-1.21v-1.21h-1.21V135h-1.21v-1.21h-1.21v-1.21h-1.21v-1.21H198.2v-1.21H197V129h-1.21v-1.21h-1.21v-1.21h-1.21v-1.21h-1.21v-1.21h-1.21V122.9h-1.21v-1.21H188.5v-1.21h-1.21v-1.21h-1.21V118h-1.21v-1.21h-1.21v-1.21h-1.21v-1.21h-1.21v-1.21H180V112h-1.21v-1.21h-1.21v-1.21h-1.21v-1.21h-1.21v-1.21h-1.21v-1.21h-1.21V104.7h-1.21v-1.21H170.3v-1.21h-1.21v-1.21h-1.21V99.85h-1.21V98.64h-1.21V97.42h-1.21V96.21H163V95h-1.21V93.78h-1.21V92.57H112.06V213.89h1.21v1.21h1.21v1.21h1.21v1.21h1.21v1.21h1.21V220h1.21v1.21h1.21v1.21h1.21v1.21H123v1.21h1.21V226h1.21v1.21h1.21v1.21h1.21v1.21H129v1.21h1.21v1.21h1.21v1.21h1.21v1.21h1.21v1.21h1.21v1.21h1.21v1.21h1.21v1.21h1.21v1.21H140v1.21h1.21V243h1.21v1.21h1.21v1.21h1.21v1.21H146v1.21h1.21v1.21h1.21v1.21h1.21v1.21h1.21v1.21h1.21v1.21h1.21v1.21h1.21v1.21h1.21v1.21H157v1.21h1.21V260h1.21v1.21h1.21v1.21h1.21v1.21H163v1.21h1.21v1.21h1.21v1.21h1.21v1.21h1.21v1.21h1.21v1.21h1.21v1.21h1.21v1.21h1.21v1.21h1.21v1.21h1.21V277h1.21v1.21h1.21v1.21h1.19C218,258.15,268.78,226.7,263.84,223.85Z" transform="translate(-0.44 -0.35)"/><g id="Elipsa_8" data-name="Elipsa 8"><path class="cls-4" d="M112.06,92.57V213.89h48.53V92.57Zm24.26,111.62a9.71,9.71,0,1,1,9.71-9.71A9.71,9.71,0,0,1,136.33,204.19Zm19.41-67.94H116.92V97.42h38.82Zm-2.43-31.54h-34v2.43h34Zm0,7.28h-34v2.43h34Zm0,7.28h-34v2.43h34Zm0,7.28h-34V129h34Z" transform="translate(-0.44 -0.35)"/></g></g></svg>